# Exported from Wings 3D 1.5.4
mtllib barrack.mtl
o Cube2
#102 vertices, 93 faces
v -1.81647246 -1.00000000 -4.50769654
v -1.81647246 -1.00000000 4.50769654
v -1.81647246 1.00000000 4.50769654
v 1.81647246 -1.00000000 -4.50769654
v 1.81647246 -1.00000000 4.50769654
v 1.81647246 1.00000000 4.50769654
v 0.0000000e+0 2.50841484 4.50769654
v -1.81647246 1.00000000 1.50256551
v 1.81647246 1.00000000 1.50256551
v 0.0000000e+0 3.25265476 -1.50256551
v 0.0000000e+0 2.68782982 1.50256551
v 0.0000000e+0 2.68782982 4.50769654
v -1.81647246 1.17941498 1.50256551
v 1.81647246 1.17941498 1.50256551
v -1.81647246 1.17941498 4.50769654
v 1.81647246 1.17941498 4.50769654
v 0.0000000e+0 3.05994978 1.50256551
v -1.81647246 1.55153494 -1.50256551
v 1.81647246 1.55153494 -1.50256551
v -1.81647246 1.55153494 1.50256551
v 1.81647246 1.55153494 1.50256551
v 0.0000000e+0 3.25265476 1.50256551
v -1.81647246 1.74423992 -1.50256551
v 1.81647246 1.74423992 -1.50256551
v -1.81647246 1.74423992 1.50256551
v 1.81647246 1.74423992 1.50256551
v 0.0000000e+0 3.63141972 -1.50256551
v 0.0000000e+0 3.63141972 -4.50769654
v 1.81647246 2.12300488 -1.50256551
v 1.81647246 2.12300488 -4.50769654
v -1.81647246 2.12300488 -4.50769654
v -1.81647246 2.12300488 -1.50256551
v 0.0000000e+0 3.82744720 -1.50256551
v 0.0000000e+0 3.82744720 -4.50769654
v 1.81647246 2.31903236 -1.50256551
v 1.81647246 2.31903236 -4.50769654
v -1.81647246 2.31903236 -4.50769654
v -1.81647246 2.31903236 -1.50256551
v 0.0000000e+0 2.50841484 4.69733183
v 0.0000000e+0 2.68782982 4.69733183
v -1.81647246 1.17941498 4.69733183
v -1.81647246 1.00000000 4.69733183
v 1.81647246 1.00000000 4.69733183
v 1.81647246 1.17941498 4.69733183
v 0.0000000e+0 3.05994978 1.69220080
v 0.0000000e+0 3.25265476 1.69220080
v 1.81647246 1.55153494 1.69220080
v 1.81647246 1.74423992 1.69220080
v -1.81647246 1.74423992 1.69220080
v -1.81647246 1.55153494 1.69220080
v 0.0000000e+0 3.63141972 -4.69733183
v 0.0000000e+0 3.82744720 -4.69733183
v 1.81647246 2.31903236 -4.69733183
v 1.81647246 2.12300488 -4.69733183
v -1.81647246 2.12300488 -4.69733183
v -1.81647246 2.31903236 -4.69733183
v 0.0000000e+0 3.63141972 -1.31293023
v 0.0000000e+0 3.82744720 -1.31293023
v 1.81647246 2.12300488 -1.31293023
v 1.81647246 2.31903236 -1.31293023
v -1.81647246 2.31903236 -1.31293023
v -1.81647246 2.12300488 -1.31293023
v -1.96818069 0.87354036 4.50769654
v -1.96818069 1.05295534 4.50769654
v -1.96818069 0.87354036 4.69733183
v -1.96818069 1.05295534 4.69733183
v -1.96818069 1.05295534 1.50256551
v -1.96818069 0.87354036 1.50256551
v 1.96818069 0.87354036 4.50769654
v 1.96818069 1.05295534 4.50769654
v 1.96818069 1.05295534 4.69733183
v 1.96818069 0.87354036 4.69733183
v 1.96818069 0.87354036 1.50256551
v 1.96818069 1.05295534 1.50256551
v 1.96818069 1.42507530 1.50256551
v 1.96818069 1.61778028 1.50256551
v 1.96818069 1.42507530 -1.50256551
v 1.96818069 1.61778028 -1.50256551
v 1.96818069 1.61778028 1.69220080
v 1.96818069 1.42507530 1.69220080
v -1.96818069 1.42507530 1.50256551
v -1.96818069 1.61778028 1.50256551
v -1.96818069 1.61778028 -1.50256551
v -1.96818069 1.42507530 -1.50256551
v -1.96818069 1.42507530 1.69220080
v -1.96818069 1.61778028 1.69220080
v 1.96818069 1.99654524 -1.50256551
v 1.96818069 1.99654524 -4.50769654
v 1.96818069 2.19257272 -1.50256551
v 1.96818069 2.19257272 -4.50769654
v 1.96818069 1.99654524 -4.69733183
v 1.96818069 2.19257272 -4.69733183
v 1.96818069 2.19257272 -1.31293023
v 1.96818069 1.99654524 -1.31293023
v -1.96818069 1.99654524 -4.50769654
v -1.96818069 1.99654524 -1.50256551
v -1.96818069 2.19257272 -4.50769654
v -1.96818069 2.19257272 -1.50256551
v -1.96818069 1.99654524 -1.31293023
v -1.96818069 2.19257272 -1.31293023
v -1.96818069 2.19257272 -4.69733183
v -1.96818069 1.99654524 -4.69733183
vt 2.4937621e-2 0.41565866
vt 2.5865580e-2 0.60883792
vt 3.2594340e-2 0.68211502
vt 3.2594340e-2 0.82312507
vt 3.2594340e-2 0.96413512
vt 4.9277786e-2 0.41553031
vt 6.0311321e-2 0.22223473
vt 6.1611988e-2 0.41548151
vt 8.4218944e-2 0.22206821
vt 9.4286158e-2 2.8685805e-2
vt 9.5742779e-2 0.22198650
vt 0.21206581 0.68211502
vt 0.21206581 0.82312507
vt 0.21206581 0.96413512
vt 0.21206581 0.82312507
vt 0.21206581 0.96413512
vt 0.21206581 0.68211502
vt 0.22292353 2.7715090e-2
vt 0.22666604 0.60789340
vt 0.39153727 0.68211502
vt 0.39153727 0.68211502
vt 0.39153727 0.82312507
vt 0.39153727 0.96413512
vt 0.39153727 0.82312507
vt 0.39153727 0.96413512
vt 0.45711741 2.6112163e-2
vt 0.46024447 0.60673405
vt 0.57100874 0.68211502
vt 0.57100874 0.82312507
vt 0.57100874 0.96413512
vt 0.58598689 2.5254994e-2
vt 0.58725400 0.21888964
vt 0.59885074 0.21881258
vt 0.62284732 0.21869826
vt 0.62390700 0.41234840
vt 0.62692537 0.68435198
vt 0.62694706 0.68370066
vt 0.62701894 0.68511531
vt 0.62702123 0.68424819
vt 0.62725732 0.68394947
vt 0.62729793 0.68440199
vt 0.62736860 0.68414355
vt 0.62778182 0.68386380
vt 0.63001489 0.73179210
vt 0.63001489 0.76449136
vt 0.63001489 0.79400129
vt 0.63001489 0.82728446
vt 0.63635410 0.41230313
vt 0.64518323 0.65219581
vt 0.64764912 0.65504311
vt 0.65040356 0.65740602
vt 0.65268924 0.66050977
vt 0.66079521 0.41220216
vt 0.66154586 0.65140745
vt 0.66155260 0.60592865
vt 0.66357116 0.65429367
vt 0.66366161 0.65434047
vt 0.66408424 0.65465698
vt 0.66522774 0.65547707
vt 0.66581419 0.65685976
vt 0.66736990 0.65558501
vt 0.66846508 0.65939873
vt 0.67199594 1.3579958e-2
vt 0.67199594 0.21463675
vt 0.67199594 0.32360181
vt 0.67199594 0.45236036
vt 0.69803731 0.62099986
vt 0.69915050 0.62489242
vt 0.70072581 0.62354798
vt 0.70101304 0.62492480
vt 0.70289127 0.62603844
vt 0.70300814 0.62583847
vt 0.70303530 0.62613090
vt 0.70506538 0.62902383
vt 0.71288799 0.62055238
vt 0.71518539 0.62365831
vt 0.71776209 0.62591594
vt 0.72023104 0.62877260
vt 0.73890376 0.59643764
vt 0.73928535 0.59619716
vt 0.73929154 0.59596028
vt 0.73931574 0.59580193
vt 0.73935610 0.59599287
vt 0.73953081 0.59572780
vt 0.73953438 0.59638434
vt 0.73966643 0.59515728
vt 0.73966643 0.59939890
vt 0.74221382 0.59808158
vt 0.74409631 0.59679470
vt 0.74579910 0.59515728
vt 0.76768311 0.63844226
vt 0.76993798 0.63635444
vt 0.77079919 0.63759183
vt 0.77114215 0.63594434
vt 0.77189610 0.63509382
vt 0.77220526 0.63467030
vt 0.77224816 0.63482476
vt 0.77479330 0.63319382
vt 0.78438882 0.67743493
vt 0.78706353 0.67554800
vt 0.78893913 0.31174741
vt 0.78893913 0.54947102
vt 0.78954649 0.67379961
vt 0.78963359 0.95983325
vt 0.78963359 0.92655007
vt 0.78963359 0.89704015
vt 0.78963359 0.86434089
vt 0.79232891 0.67183747
vt 0.81551083 0.70621921
vt 0.81738441 0.70361457
vt 0.81824959 0.70484222
vt 0.81905327 0.70385387
vt 0.82011663 0.70344444
vt 0.82050030 0.70321285
vt 0.82062334 0.70331225
vt 0.82291822 0.70140703
vt 0.84149854 0.74620794
vt 0.84371330 0.74443387
vt 0.84564518 0.74324390
vt 0.84783930 0.68475216
vt 0.84783930 0.74235170
vt 0.85113477 0.68475248
vt 0.85395761 0.68475510
vt 0.85458916 0.77394304
vt 0.85597588 0.59515728
vt 0.85628382 0.64301377
vt 0.85628878 0.72645814
vt 0.85737855 0.68475589
vt 0.85738717 0.77377396
vt 0.85878129 0.59553824
vt 0.85931723 0.72689800
vt 0.85932472 0.64262048
vt 0.85932695 0.64407584
vt 0.85932894 0.72544959
vt 0.85946334 0.77389954
vt 0.86050776 0.72657651
vt 0.86050848 0.64295547
vt 0.86087067 0.59556978
vt 0.86145735 0.72681896
vt 0.86145821 0.64272854
vt 0.86175733 0.77441759
vt 0.86190281 0.64271277
vt 0.86190472 0.72685233
vt 0.86194959 0.72700517
vt 0.86195723 0.64255957
vt 0.86319101 0.59522650
vt 0.86492537 0.64283508
vt 0.86492537 0.72678160
vt 0.90588231 1.3579958e-2
vt 0.90588231 0.21463675
vt 0.90588231 0.32360181
vt 0.90588231 0.45236036
vt 0.94925229 0.82728446
vt 0.94925229 0.79400129
vt 0.94925229 0.76449136
vt 0.94925229 0.73179210
vn -0.57735027 -0.57735027 -0.57735027
vn -0.57735027 -0.57735027 0.57735027
vn 0.34358429 -0.86157224 0.37368852
vn 0.57735027 -0.57735027 -0.57735027
vn 0.57735027 -0.57735027 0.57735027
vn -0.34358429 -0.86157224 0.37368852
vn 0.0000000e+0 -0.83847464 0.54494061
vn -0.27432116 -0.58579421 -0.76262248
vn 0.27432116 -0.58579421 -0.76262248
vn 0.0000000e+0 0.60975849 0.79258727
vn 0.0000000e+0 0.60975849 0.79258727
vn 0.0000000e+0 1.00000000 0.0000000e+0
vn -0.82901173 0.55923121 0.0000000e+0
vn 0.82901173 0.55923121 0.0000000e+0
vn -0.63957427 0.76872931 0.0000000e+0
vn 0.63957427 0.76872931 0.0000000e+0
vn 0.0000000e+0 -0.60975849 0.79258727
vn -0.27432116 -0.58579421 -0.76262248
vn 0.27432116 -0.58579421 -0.76262248
vn 0.34358429 -0.86157224 0.37368852
vn -0.34358429 -0.86157224 0.37368852
vn 0.0000000e+0 1.00000000 0.0000000e+0
vn -0.82901173 0.55923121 0.0000000e+0
vn 0.82901173 0.55923121 0.0000000e+0
vn -0.63957427 0.76872931 0.0000000e+0
vn 0.63957427 0.76872931 0.0000000e+0
vn 0.0000000e+0 -0.60975849 0.79258727
vn -6.0500561e-17 -0.83847464 -0.54494061
vn -0.34358429 -0.86157224 0.37368852
vn -0.34358429 -0.86157224 -0.37368852
vn 0.34358429 -0.86157224 -0.37368852
vn 0.34358429 -0.86157224 0.37368852
vn 0.0000000e+0 1.00000000 0.0000000e+0
vn 0.0000000e+0 1.00000000 0.0000000e+0
vn 0.63957427 0.76872931 0.0000000e+0
vn 0.63957427 0.76872931 0.0000000e+0
vn -0.63957427 0.76872931 0.0000000e+0
vn -0.63957427 0.76872931 0.0000000e+0
vn 0.0000000e+0 -0.60975849 0.79258727
vn 0.0000000e+0 0.60975849 0.79258727
vn -0.45224720 0.54357359 0.70710694
vn 0.45224720 -0.54357359 0.70710694
vn -0.45224720 -0.54357359 0.70710694
vn 0.45224720 0.54357359 0.70710694
vn 0.0000000e+0 -0.60975849 0.79258727
vn 0.0000000e+0 0.60975849 0.79258727
vn -0.45224720 -0.54357359 0.70710694
vn 0.45224720 0.54357359 0.70710694
vn -0.45224720 0.54357359 0.70710694
vn 0.45224720 -0.54357359 0.70710694
vn 0.0000000e+0 -0.60975849 -0.79258727
vn 0.0000000e+0 0.60975849 -0.79258727
vn 0.45224720 0.54357359 -0.70710694
vn -0.45224720 -0.54357359 -0.70710694
vn 0.45224720 -0.54357359 -0.70710694
vn -0.45224720 0.54357359 -0.70710694
vn 0.0000000e+0 -0.60975849 0.79258727
vn 0.0000000e+0 0.60975849 0.79258727
vn -0.45224720 -0.54357359 0.70710694
vn 0.45224720 0.54357359 0.70710694
vn -0.45224720 0.54357359 0.70710694
vn 0.45224720 -0.54357359 0.70710694
vn -0.42409178 -0.90561922 0.0000000e+0
vn -0.90561922 0.42409178 0.0000000e+0
vn -0.27432116 -0.58579421 0.76262248
vn -0.79281108 0.37126493 0.48333523
vn -0.79281108 0.37126493 -0.48333523
vn -0.27432116 -0.58579421 -0.76262248
vn 0.42409178 -0.90561922 0.0000000e+0
vn 0.90561922 0.42409178 0.0000000e+0
vn 0.79281108 0.37126493 0.48333523
vn 0.27432116 -0.58579421 0.76262248
vn 0.27432116 -0.58579421 -0.76262248
vn 0.79281108 0.37126493 -0.48333523
vn 0.42409178 -0.90561922 0.0000000e+0
vn 0.90561922 0.42409178 0.0000000e+0
vn 0.27432116 -0.58579421 -0.76262248
vn 0.79281108 0.37126493 -0.48333523
vn 0.79281108 0.37126493 0.48333523
vn 0.27432116 -0.58579421 0.76262248
vn -0.42409178 -0.90561922 0.0000000e+0
vn -0.90561922 0.42409178 0.0000000e+0
vn -0.79281108 0.37126493 -0.48333523
vn -0.27432116 -0.58579421 -0.76262248
vn -0.27432116 -0.58579421 0.76262248
vn -0.79281108 0.37126493 0.48333523
vn 0.42409178 -0.90561922 0.0000000e+0
vn 0.42409178 -0.90561922 0.0000000e+0
vn 0.90561922 0.42409178 0.0000000e+0
vn 0.90561922 0.42409178 0.0000000e+0
vn 0.27432116 -0.58579421 -0.76262248
vn 0.79281108 0.37126493 -0.48333523
vn 0.79281108 0.37126493 0.48333523
vn 0.27432116 -0.58579421 0.76262248
vn -0.42409178 -0.90561922 0.0000000e+0
vn -0.42409178 -0.90561922 0.0000000e+0
vn -0.90561922 0.42409178 0.0000000e+0
vn -0.90561922 0.42409178 0.0000000e+0
vn -0.27432116 -0.58579421 0.76262248
vn -0.79281108 0.37126493 0.48333523
vn -0.79281108 0.37126493 -0.48333523
vn -0.27432116 -0.58579421 -0.76262248
g Cube2_Cube2_auv
usemtl Cube2_auv
s 1
f 1/27/1 4/19/4 5/18/5 2/26/2
f 1/149/1 31/150/31 28/101/28 30/64/30 4/63/4
f 2/26/2 3/31/3 8/32/8 13/33/13 20/34/20 18/35/18 23/48/23 32/53/32 31/55/31 1/27/1
f 2/65/2 5/151/5 6/152/6 7/102/7 3/66/3
f 3/147/3 42/142/42 65/140/65 63/145/63
f 3/147/3 63/145/63 68/138/68 8/146/8
f 4/19/4 30/2/30 29/1/29 24/6/24 19/8/19 21/7/21 14/9/14 9/11/9 6/10/6 5/18/5
f 6/148/6 43/143/43 39/123/39 7/128/7
f 7/128/7 39/123/39 42/142/42 3/147/3
f 8/146/8 68/138/68 67/130/67 13/125/13
f 9/141/9 73/135/73 69/144/69 6/148/6
f 10/4/10 23/3/23 25/12/25 22/13/22
f 10/105/10 27/104/27 32/47/32 23/46/23
f 11/24/11 13/21/13 15/28/15 12/29/12
f 11/107/11 17/106/17 20/45/20 13/44/13
f 12/120/12 15/126/15 41/133/41 40/122/40
f 12/29/12 16/30/16 14/25/14 11/24/11
f 13/125/13 67/130/67 64/132/64 15/126/15
f 14/156/14 21/155/21 17/106/17 11/107/11
f 14/124/14 74/129/74 73/135/73 9/141/9
f 15/126/15 64/132/64 66/137/66 41/133/41
f 16/127/16 70/131/70 74/129/74 14/124/14
f 17/108/17 45/103/45 50/97/50 20/98/20
f 18/90/18 84/89/84 83/88/83 23/87/23
f 19/121/19 77/119/77 75/115/75 21/116/21
f 20/98/20 50/97/50 85/95/85 81/96/81
f 20/98/20 81/96/81 84/89/84 18/90/18
f 21/116/21 47/114/47 45/103/45 17/108/17
f 22/99/22 25/91/25 49/93/49 46/100/46
f 22/13/22 26/14/26 24/5/24 10/4/10
f 23/87/23 83/88/83 82/92/82 25/91/25
f 24/154/24 29/153/29 27/104/27 10/105/10
f 24/117/24 78/118/78 77/119/77 19/121/19
f 25/91/25 82/92/82 86/94/86 49/93/49
f 26/109/26 76/111/76 78/118/78 24/117/24
f 27/75/27 57/76/57 62/57/62 32/54/32
f 28/52/28 31/37/31 55/36/55 51/51/51
f 29/85/29 59/84/59 57/76/57 27/75/27
f 30/74/30 54/71/54 91/72/91 88/73/88
f 30/74/30 88/73/88 87/80/87 29/85/29
f 32/54/32 62/57/62 99/58/99 96/56/96
f 32/54/32 96/56/96 95/40/95 31/37/31
f 33/22/33 35/23/35 36/16/36 34/15/34
f 33/78/33 38/62/38 61/61/61 58/77/58
f 34/15/34 37/17/37 38/20/38 33/22/33
f 34/49/34 52/50/52 56/43/56 37/38/37
f 35/86/35 89/82/89 90/69/90 36/67/36
f 36/67/36 53/68/53 52/50/52 34/49/34
f 36/67/36 90/69/90 92/70/92 53/68/53
f 37/38/37 97/41/97 98/60/98 38/62/38
f 38/62/38 98/60/98 100/59/100 61/61/61
f 39/123/39 43/143/43 44/134/44 40/122/40
f 40/122/40 41/133/41 42/142/42 39/123/39
f 40/122/40 44/134/44 16/127/16 12/120/12
f 41/133/41 66/137/66 65/140/65 42/142/42
f 43/143/43 72/139/72 71/136/71 44/134/44
f 44/134/44 71/136/71 70/131/70 16/127/16
f 45/103/45 47/114/47 48/110/48 46/100/46
f 46/100/46 48/110/48 26/109/26 22/99/22
f 46/100/46 49/93/49 50/97/50 45/103/45
f 47/114/47 80/113/80 79/112/79 48/110/48
f 48/110/48 79/112/79 76/111/76 26/109/26
f 49/93/49 86/94/86 85/95/85 50/97/50
f 51/51/51 54/71/54 30/74/30 28/52/28
f 51/51/51 55/36/55 56/43/56 52/50/52
f 52/50/52 53/68/53 54/71/54 51/51/51
f 53/68/53 92/70/92 91/72/91 54/71/54
f 55/36/55 102/39/102 101/42/101 56/43/56
f 56/43/56 101/42/101 97/41/97 37/38/37
f 57/76/57 59/84/59 60/79/60 58/77/58
f 58/77/58 60/79/60 35/86/35 33/78/33
f 58/77/58 61/61/61 62/57/62 57/76/57
f 59/84/59 94/83/94 93/81/93 60/79/60
f 60/79/60 93/81/93 89/82/89 35/86/35
f 61/61/61 100/59/100 99/58/99 62/57/62
f 63/145/63 65/140/65 66/137/66 64/132/64
f 64/132/64 67/130/67 68/138/68 63/145/63
f 69/144/69 72/139/72 43/143/43 6/148/6
f 69/144/69 73/135/73 74/129/74 70/131/70
f 70/131/70 71/136/71 72/139/72 69/144/69
f 75/115/75 77/119/77 78/118/78 76/111/76
f 75/115/75 80/113/80 47/114/47 21/116/21
f 76/111/76 79/112/79 80/113/80 75/115/75
f 81/96/81 85/95/85 86/94/86 82/92/82
f 82/92/82 83/88/83 84/89/84 81/96/81
f 87/80/87 88/73/88 90/69/90 89/82/89
f 87/80/87 94/83/94 59/84/59 29/85/29
f 88/73/88 91/72/91 92/70/92 90/69/90
f 89/82/89 93/81/93 94/83/94 87/80/87
f 95/40/95 96/56/96 98/60/98 97/41/97
f 95/40/95 102/39/102 55/36/55 31/37/31
f 96/56/96 99/58/99 100/59/100 98/60/98
f 97/41/97 101/42/101 102/39/102 95/40/95
