# Exported from Wings 3D 1.5.4
mtllib base.mtl
o Cube1
#47 vertices, 39 faces
v -8.00000000 -7.2863473e-2 -8.00000000
v -8.00000000 -7.2863473e-2 8.00000000
v -8.00000000 0.24064519 -8.00000000
v -8.00000000 0.24064519 8.00000000
v 8.00000000 -7.2863473e-2 -8.00000000
v 8.00000000 -7.2863473e-2 8.00000000
v 8.00000000 0.24064519 -8.00000000
v 8.00000000 0.24064519 8.00000000
v -5.31523460 0.24064519 -5.31523460
v -5.31523460 0.24064519 5.31523460
v 5.31523460 0.24064519 5.31523460
v 5.31523460 0.24064519 -5.31523460
v -8.00000000 2.21069164 -8.00000000
v -8.00000000 2.21069164 8.00000000
v 8.00000000 2.21069164 -8.00000000
v 8.00000000 2.21069164 8.00000000
v -5.31523460 2.21069164 -5.31523460
v -5.31523460 2.21069164 5.31523460
v 5.31523460 2.21069164 5.31523460
v 5.31523460 2.21069164 -5.31523460
v 6.53678400 3.07756193 6.53678400
v 6.53678400 3.07756193 -6.53678400
v -6.53678400 3.07756193 6.53678400
v -6.53678400 3.07756193 -6.53678400
v 0.0000000e+0 0.24064519 5.31523460
v 5.31523460 0.24064519 0.0000000e+0
v 7.6172979e-3 0.24064519 7.6172979e-3
v 0.0000000e+0 5.20054387 5.31523460
v 5.31523460 5.20054387 5.31523460
v 5.31523460 5.20054387 0.0000000e+0
v 7.6172979e-3 5.20054387 7.6172979e-3
v 0.0000000e+0 5.52651471 5.31523460
v 5.31523460 5.52651471 5.31523460
v 5.31523460 5.52651471 0.0000000e+0
v 7.6172979e-3 5.52651471 7.6172979e-3
v -0.28573195 5.52651471 5.60055677
v 5.60055677 5.52651471 5.60055677
v 5.60055677 5.52651471 -0.28573195
v -0.27729627 5.52651471 -0.27729627
v 0.0000000e+0 6.55367453 5.31523460
v 5.31523460 6.55367453 5.31523460
v 5.31523460 6.55367453 0.0000000e+0
v 7.6172979e-3 6.55367453 7.6172979e-3
v -0.28573195 6.55367453 5.60055677
v 5.60055677 6.55367453 5.60055677
v 5.60055677 6.55367453 -0.28573195
v -0.27729627 6.55367453 -0.27729627
vt 2.3000000e-2 0.96702454
vt 3.2690892e-2 2.2765163e-2
vt 0.11638690 0.87459115
vt 0.12485195 0.11587692
vt 0.19486918 0.79691020
vt 0.20250426 0.19433026
vt 0.24820327 0.24808473
vt 0.24820327 0.75179673
vt 0.50005927 0.24808473
vt 0.50042021 0.49957979
vt 0.54063574 0.23788571
vt 0.54063574 0.31570052
vt 0.54540053 0.24324425
vt 0.54540053 0.31146368
vt 0.54606405 0.24399046
vt 0.54606405 0.31087368
vt 0.57152503 0.38857411
vt 0.57865591 0.38882008
vt 0.61248870 0.25180910
vt 0.61248870 0.31869232
vt 0.61315223 0.25121909
vt 0.61315223 0.31943852
vt 0.61791702 0.24698225
vt 0.61791702 0.32479706
vt 0.62328640 0.40537765
vt 0.62921361 0.44801819
vt 0.63616113 0.43588156
vt 0.63852370 0.43175438
vt 0.63940461 0.41357652
vt 0.63976685 0.41375684
vt 0.64104844 0.41441986
vt 0.64163443 0.41473072
vt 0.64258784 0.41524083
vt 0.64410387 0.42200638
vt 0.64423535 0.42177671
vt 0.64469024 0.42098205
vt 0.64489407 0.42062599
vt 0.64522321 0.42005101
vt 0.64818465 0.41487766
vt 0.64854579 0.41424679
vt 0.64877145 0.41385258
vt 0.64929433 0.41293917
vt 0.64945067 0.41266605
vt 0.65070557 0.41988776
vt 0.65162823 0.42045160
vt 0.65219302 0.42079949
vt 0.65341372 0.42156888
vt 0.65375264 0.42178994
vt 0.65593132 0.40134500
vt 0.66324191 0.38857411
vt 0.66898450 0.43153717
vt 0.70586210 0.46163827
vt 0.70968511 0.46766276
vt 0.75191527 0.49994073
vt 0.75191527 0.75179673
vt 0.79749574 0.79545945
vt 0.80513082 0.19287951
vt 0.87514805 0.87391279
vt 0.88361310 0.11519856
vt 0.96730911 0.96702454
vt 0.97700000 2.2765163e-2
vn -0.57735027 -0.57735027 -0.57735027
vn -0.57735027 -0.57735027 0.57735027
vn -0.70710678 0.0000000e+0 -0.70710678
vn -0.70710678 0.0000000e+0 0.70710678
vn 0.57735027 -0.57735027 -0.57735027
vn 0.57735027 -0.57735027 0.57735027
vn 0.70710678 0.0000000e+0 -0.70710678
vn 0.70710678 0.0000000e+0 0.70710678
vn 0.57735027 0.57735027 0.57735027
vn 0.57735027 0.57735027 -0.57735027
vn 0.0000000e+0 0.0000000e+0 0.0000000e+0
vn -0.57735027 0.57735027 0.57735027
vn -0.55056166 0.62750595 -0.55056166
vn -0.55056166 0.62750595 0.55056166
vn 0.55056166 0.62750595 -0.55056166
vn 0.55056166 0.62750595 0.55056166
vn 0.57097564 0.58989290 0.57097564
vn 0.57097564 0.58989290 -0.57097564
vn -0.57097564 0.58989290 -0.57097564
vn -0.57097564 0.58989290 0.57097564
vn -2.0585026e-2 0.99957617 -2.0585026e-2
vn -2.0585026e-2 0.99957617 2.0585026e-2
vn 2.0585026e-2 0.99957617 -2.0585026e-2
vn 2.0585026e-2 0.99957617 2.0585026e-2
vn -0.70710605 0.70710678 -1.0148127e-3
vn -1.0148127e-3 0.70710678 -0.70710605
vn -0.57762587 0.57679867 -0.57762587
vn -0.62473972 -0.46959477 0.62384376
vn 0.62439071 -0.46933195 0.62439071
vn 0.62384376 -0.46959477 -0.62473972
vn -0.62458763 -0.46880763 -0.62458763
vn 0.57762607 0.57762666 -0.57679768
vn -0.57735027 0.57735027 -0.57735027
vn -0.57679768 0.57762666 0.57762607
vn 0.57762587 0.57679867 0.57762587
vn -0.62473972 -0.46959477 0.62384376
vn 0.62439071 -0.46933195 0.62439071
vn 0.62384376 -0.46959477 -0.62473972
vn -0.62458763 -0.46880763 -0.62458763
vn 0.40834556 0.81669195 -0.40775993
vn -0.40824829 0.81649658 -0.40824829
vn -0.40775993 0.81669195 0.40834556
vn 0.40863833 0.81610626 0.40863833
vn -0.40834556 0.81669195 0.40775993
vn 0.40824829 0.81649658 0.40824829
vn 0.40775993 0.81669195 -0.40834556
vn -0.40863833 0.81610626 -0.40863833
g Cube1_Cube1_auv
usemtl Cube1_auv
s 1
f 1/20/1 5/16/5 6/15/6 2/19/2
f 2/19/2 4/21/4 14/23/14 13/24/13 3/22/3 1/20/1
f 2/19/2 6/15/6 8/13/8 16/11/16 14/23/14 4/21/4
f 3/22/3 13/24/13 15/12/15 7/14/7 5/16/5 1/20/1
f 5/16/5 7/14/7 15/12/15 16/11/16 8/13/8 6/15/6
f 9/27/9 17/26/17 18/17/18 10/18/10
f 10/7/10 25/9/25 27/10/27 26/54/26 12/55/12 9/8/9
f 11/49/11 29/43/29 28/29/28 25/25/25
f 12/52/12 20/53/20 17/26/17 9/27/9
f 13/1/13 14/2/14 23/4/23 24/3/24
f 14/2/14 16/61/16 21/59/21 23/4/23
f 17/5/17 24/3/24 23/4/23 18/6/18
f 18/6/18 23/4/23 21/59/21 19/57/19
f 19/57/19 21/59/21 22/58/22 20/56/20
f 20/56/20 22/58/22 24/3/24 17/5/17
f 22/58/22 21/59/21 16/61/16 15/60/15
f 24/3/24 22/58/22 15/60/15 13/1/13
f 25/25/25 10/18/10 18/17/18 19/50/19 11/49/11
f 25/25/25 28/29/28 31/34/31 27/28/27
f 26/51/26 11/49/11 19/50/19 20/53/20 12/52/12
f 26/51/26 30/48/30 29/43/29 11/49/11
f 27/28/27 31/34/31 30/48/30 26/51/26
f 28/29/28 36/30/36 39/35/39 31/34/31
f 29/43/29 37/42/37 36/30/36 28/29/28
f 30/48/30 38/47/38 37/42/37 29/43/29
f 31/34/31 39/35/39 38/47/38 30/48/30
f 32/33/32 40/32/40 41/40/41 33/39/33
f 33/39/33 34/44/34 35/38/35 32/33/32
f 33/39/33 41/40/41 42/45/42 34/44/34
f 34/44/34 42/45/42 43/37/43 35/38/35
f 35/38/35 43/37/43 40/32/40 32/33/32
f 36/30/36 37/42/37 45/41/45 44/31/44
f 37/42/37 38/47/38 46/46/46 45/41/45
f 38/47/38 39/35/39 47/36/47 46/46/46
f 40/32/40 43/37/43 47/36/47 44/31/44
f 44/31/44 45/41/45 41/40/41 40/32/40
f 44/31/44 47/36/47 39/35/39 36/30/36
f 45/41/45 46/46/46 42/45/42 41/40/41
f 46/46/46 47/36/47 43/37/43 42/45/42
